<svg width="80" height="81" viewBox="0 0 80 81" fill="none" xmlns="http://www.w3.org/2000/svg">
<path d="M12.0502 70.6V70.6167H12.0669H14.8502H14.9002L14.8835 70.5833L10.8835 63.5333V62.0333V62H10.8669H8.68353H8.6502V62.0333V63.5667L4.71686 70.5833L4.7002 70.6167H4.7502H7.53353H7.5502V70.6L9.8002 66.2167L12.0502 70.6Z" fill="white"/>
<path d="M30.3835 62V63.6667H28.2002V65.6833H30.3835V66.7167H28.2169H28.2002V66.75V68.7167V68.75H28.2169H30.3835V70.65H32.6169V62H30.3835Z" fill="white"/>
<path d="M17.2831 64.9832V62.0499V62.0332H17.2665H15.0831H15.0498V62.0499V70.5832V70.6165H15.0831H17.2665H17.2831V70.5832V66.9999H19.4331H19.4665V66.9832V64.9999V64.9832H19.4331H17.2831Z" fill="white"/>
<path d="M60.8837 64.95V62.0333V62H60.8671H58.6837H58.6504V62.0333V70.5667V70.6H58.6837H60.8671H60.8837V70.5667V66.9833H63.0504H63.0671V66.95V64.9667V64.95H63.0504H60.8837Z" fill="white"/>
<path d="M45.0334 62.0001H45.0167V62.0167V65.2001H43.4667V62.0167V61.9834H43.4334H41.2667H41.2334V62.0167V80.1834V80.2001H41.2667H43.4334H43.4667V80.1834V67.2501H45.0167V80.1834V80.2001H45.0334H47.2167H47.2334V80.1834V62.0167V62.0001H47.2167H45.0334Z" fill="white"/>
<path d="M34.8673 62.25H34.834V62.2833V70.5V70.5333H34.8673H40.6173H40.634V70.5V68.55V68.5333H40.6173H37.1173V64.2833H40.634H40.6507V64.25V62.2833V62.25H40.634H34.8673Z" fill="white"/>
<path d="M60.8498 72H58.6831H50.5831H50.5498V72.0167V73.9833V74H50.5831H58.6498V80.1667V80.2H58.6831H60.8665H60.8831V80.1667V72.0167V72H60.8665H60.8498Z" fill="white"/>
<path d="M27.6005 70.55V62.25H20.3672V70.5167L20.3839 70.5333H27.6005V70.55ZM25.4005 64.2833V68.5333H22.6339V64.2833H25.4005Z" fill="white"/>
<path d="M17.3171 75.9C17.3171 74.6333 16.8671 73.5167 15.9837 72.6167C15.1004 71.7 14.0004 71.25 12.7171 71.25C11.4337 71.25 10.3671 71.7167 9.48372 72.6167C8.60039 73.5167 8.15039 74.6333 8.15039 75.9167C8.15039 77.2 8.60039 78.3167 9.48372 79.2333C10.3671 80.15 11.4504 80.6167 12.7171 80.6167C13.9837 80.6167 15.1004 80.15 16.0004 79.2333C16.9004 78.3167 17.3504 77.2 17.3504 75.9167L17.3171 75.9ZM12.7504 78.2833C12.1171 78.2833 11.5504 78.05 11.1171 77.5833C10.6671 77.1167 10.4504 76.5667 10.4504 75.9167C10.4671 75.2667 10.7004 74.7 11.1504 74.2333C11.6004 73.7833 12.1504 73.55 12.7837 73.55C13.4171 73.55 13.9671 73.7833 14.4004 74.2667C14.8337 74.7333 15.0504 75.3 15.0671 75.9333C15.0671 76.5833 14.8337 77.15 14.4004 77.6C13.9671 78.05 13.4004 78.2833 12.7504 78.2833Z" fill="white"/>
<path d="M32.6169 75.9C32.6169 74.6333 32.1669 73.5167 31.2835 72.6167C30.4002 71.7 29.3002 71.25 28.0169 71.25C26.7335 71.25 25.6669 71.7167 24.7835 72.6167C23.9002 73.5167 23.4502 74.6333 23.4502 75.9167C23.4502 77.2 23.9002 78.3167 24.7835 79.2333C25.6669 80.15 26.7502 80.6167 28.0169 80.6167C29.2835 80.6167 30.4002 80.15 31.3002 79.2333C32.1835 78.3167 32.6502 77.2 32.6502 75.9167V75.8833H32.6169V75.9ZM28.0502 78.2833C27.4169 78.2833 26.8669 78.05 26.4169 77.5833C25.9669 77.1167 25.7502 76.5667 25.7502 75.9167C25.7502 75.2667 26.0002 74.7 26.4502 74.2333C26.9002 73.7833 27.4502 73.55 28.0835 73.55C28.7169 73.55 29.2669 73.7833 29.7169 74.2667C30.1502 74.7333 30.3669 75.3 30.3835 75.9333C30.3835 76.5833 30.1669 77.15 29.7169 77.6C29.2835 78.05 28.7169 78.2833 28.0669 78.2833H28.0502Z" fill="white"/>
<path d="M53.5673 70.5333C55.6006 70.5333 57.2506 68.8833 57.2506 66.8499C57.2506 66.1999 57.0839 65.5666 56.7506 64.9999H58.0173V62.9499H54.6339V61.5166H52.4173V62.9499H49.1006V64.9999H50.3839C50.0673 65.5666 49.8839 66.1999 49.8839 66.8499C49.8839 68.8833 51.5339 70.5333 53.5673 70.5333ZM53.5673 68.4166C52.7006 68.4166 51.9839 67.7166 51.9839 66.8333C51.9839 65.9499 52.6839 65.2499 53.5673 65.2499C54.4506 65.2499 55.1506 65.9499 55.1506 66.8333C55.1506 67.7166 54.4506 68.4166 53.5673 68.4166Z" fill="white"/>
<path d="M71.9831 70.5669V70.5835H72.0164H74.1997H74.2164V70.5669V62.4835V62.4502H74.1997H74.1831H63.5831H63.5664V62.4835V64.4502V64.4669H63.5831H71.9831V70.5669Z" fill="white"/>
<path d="M75.1333 77.9829H71.0499V70.6329V70.6162H71.0166H68.8333H68.8166V70.6329V77.9829H67.7666V70.6329V70.6162H67.7499H65.5666H65.5333V70.6329V77.9829H63.7833H63.7666V78.0162V79.9662V79.9995H63.7833H75.1333H75.1499V79.9662V78.0162V77.9829H75.1333Z" fill="white"/>
<path d="M18.8164 0V56.9333H61.1664V0H18.8164ZM40.2664 18.85H35.3497L30.6664 11.1L25.9831 18.85H21.0664L28.6831 6.4V3.21667H32.6331V6.4L40.2497 18.85H40.2664ZM36.4164 25.6V29.0833H32.5831V35.3833H28.7497V20.4167H32.5831V25.6H36.4164ZM30.6664 37.0667C34.3831 37.0667 36.4497 39.45 36.4497 39.45C38.9997 42 38.8331 45.2 38.8331 45.2C38.8331 48.7667 36.4331 50.9833 36.4331 50.9833C33.9164 53.5 30.6497 53.3667 30.6497 53.3667C26.9831 53.3667 24.8997 50.9833 24.8997 50.9833C22.2664 48.35 22.5164 45.2 22.5164 45.2C22.5164 41.5 24.8997 39.45 24.8997 39.45C27.5497 36.8 30.6497 37.05 30.6497 37.05L30.6664 37.0667ZM43.6164 32.2V28.7167H47.4497V26.8167H43.6164V23.3333H47.4497V20.4167H51.2831V35.3833H47.4497V32.2H43.6164ZM42.0997 18.65V3.93333H56.6997V18.65H42.0997ZM43.5997 39.45C46.2497 36.8 49.3664 37.05 49.3664 37.05C53.0831 37.05 55.1497 39.4333 55.1497 39.4333C57.6997 41.9833 57.5331 45.1833 57.5331 45.1833C57.5331 48.75 55.1331 50.9667 55.1331 50.9667C52.6164 53.4833 49.3497 53.35 49.3497 53.35C45.6831 53.35 43.5997 50.9667 43.5997 50.9667C40.9664 48.3333 41.2164 45.1833 41.2164 45.1833C41.2164 41.4833 43.5997 39.4333 43.5997 39.4333V39.45Z" fill="white"/>
<path d="M49.3669 49.4833C49.3669 49.4833 51.0669 49.55 52.3835 48.2333C52.3835 48.2333 53.6335 47.0833 53.6335 45.2C53.6335 45.2 53.6502 43.45 52.3835 42.2C52.3835 42.2 51.2835 40.95 49.3502 40.95C49.3502 40.95 47.7335 40.7667 46.3335 42.2C46.3335 42.2 45.0835 43.3 45.0835 45.2167C45.0835 45.2167 44.9669 46.8833 46.3335 48.25C46.3335 48.25 47.4335 49.4833 49.3502 49.4833H49.3669Z" fill="white"/>
<path d="M52.9001 7.41699H45.9834V15.167H52.9001V7.41699Z" fill="white"/>
<path d="M30.6666 49.4833C30.6666 49.4833 32.3666 49.55 33.6999 48.2333C33.6999 48.2333 34.9499 47.0833 34.9499 45.2C34.9499 45.2 34.9666 43.45 33.6999 42.2C33.6999 42.2 32.6166 40.95 30.6666 40.95C30.6666 40.95 29.0499 40.7667 27.6499 42.2C27.6499 42.2 26.3999 43.3 26.3999 45.2167C26.3999 45.2167 26.2833 46.8833 27.6499 48.25C27.6499 48.25 28.7499 49.4833 30.6499 49.4833H30.6666Z" fill="white"/>
</svg>
